# Blender 3.6.5
# www.blender.org
mtllib rock.mtl
o node_id4
v -0.142231 -0.046985 0.380223
v -0.135617 -0.002149 0.369919
v -0.107211 0.132348 0.217310
v -0.141732 -0.074880 0.367545
v -0.145441 -0.105271 0.318662
v -0.093570 -0.122096 0.324627
v -0.135617 -0.002149 0.369919
v -0.129181 0.034696 0.348097
v -0.107211 0.132348 0.217310
v -0.129181 0.034696 0.348097
v -0.120622 0.027154 0.363144
v -0.107211 0.132348 0.217310
v -0.145441 -0.105271 0.318662
v -0.125650 -0.092982 0.074305
v -0.122180 -0.094164 0.075448
v -0.093570 -0.122096 0.324627
v -0.013374 -0.018564 0.373845
v -0.141732 -0.074880 0.367545
v -0.093570 -0.122096 0.324627
v -0.120622 0.027154 0.363144
v -0.095262 0.140269 0.211442
v -0.107211 0.132348 0.217310
v -0.120622 0.027154 0.363144
v 0.013085 0.142799 0.257391
v -0.095262 0.140269 0.211442
v -0.120622 0.027154 0.363144
v -0.048466 0.054213 0.356943
v 0.013085 0.142799 0.257391
v -0.129181 0.034696 0.348097
v -0.135617 -0.002149 0.369919
v -0.120622 0.027154 0.363144
v -0.107211 0.132348 0.217310
v -0.105341 0.129209 0.186999
v -0.104689 0.061479 0.059718
v -0.105341 0.129209 0.186999
v -0.095262 0.140269 0.211442
v -0.104689 0.061479 0.059718
v -0.095262 0.140269 0.211442
v 0.013085 0.142799 0.257391
v -0.093878 0.060973 0.062856
v -0.104689 0.061479 0.059718
v 0.013085 0.142799 0.257391
v 0.191432 0.047016 0.145747
v -0.093878 0.060973 0.062856
v 0.013085 0.142799 0.257391
v 0.203554 0.054781 0.165332
v 0.206389 0.046192 0.150105
v 0.191432 0.047016 0.145747
v 0.203554 0.054781 0.165332
v 0.192876 -0.028682 0.223163
v 0.205878 0.023718 0.152948
v 0.206389 0.046192 0.150105
v 0.203554 0.054781 0.165332
v -0.013374 -0.018564 0.373845
v 0.192876 -0.028682 0.223163
v -0.013374 -0.018564 0.373845
v 0.092976 -0.062322 0.319023
v 0.192876 -0.028682 0.223163
v 0.092976 -0.062322 0.319023
v -0.013374 -0.018564 0.373845
v -0.093570 -0.122096 0.324627
v 0.029233 -0.156208 0.272176
v -0.135617 -0.002149 0.369919
v -0.142231 -0.046985 0.380223
v -0.013374 -0.018564 0.373845
v -0.142231 -0.046985 0.380223
v -0.138359 -0.052242 0.381446
v -0.013374 -0.018564 0.373845
v 0.029233 -0.156208 0.272176
v -0.093570 -0.122096 0.324627
v 0.095247 -0.167241 0.146920
v 0.100602 -0.169032 0.148680
v -0.138359 -0.052242 0.381446
v -0.141732 -0.074880 0.367545
v -0.013374 -0.018564 0.373845
v 0.203554 0.054781 0.165332
v 0.013085 0.142799 0.257391
v -0.013374 -0.018564 0.373845
v -0.093570 -0.122096 0.324627
v -0.122180 -0.094164 0.075448
v 0.095247 -0.167241 0.146920
v 0.013085 0.142799 0.257391
v -0.048466 0.054213 0.356943
v -0.013374 -0.018564 0.373845
v -0.142231 -0.046985 0.380223
v -0.144736 -0.075977 0.364013
v -0.141732 -0.074880 0.367545
v -0.144736 -0.075977 0.364013
v -0.145441 -0.105271 0.318662
v -0.141732 -0.074880 0.367545
v -0.138359 -0.052242 0.381446
v -0.142231 -0.046985 0.380223
v -0.141732 -0.074880 0.367545
v 0.192876 -0.028682 0.223163
v 0.092976 -0.062322 0.319023
v 0.029233 -0.156208 0.272176
v 0.100602 -0.169032 0.148680
v 0.203617 -0.058355 0.163220
v -0.144736 -0.075977 0.364013
v -0.142231 -0.046985 0.380223
v -0.145441 -0.105271 0.318662
v -0.142231 -0.046985 0.380223
v -0.107211 0.132348 0.217310
v -0.145441 -0.105271 0.318662
v -0.095262 0.140269 0.211442
v -0.105341 0.129209 0.186999
v -0.107211 0.132348 0.217310
v 0.205878 0.023718 0.152948
v 0.203617 -0.058355 0.163220
v 0.100602 -0.169032 0.148680
v 0.095247 -0.167241 0.146920
v 0.206389 0.046192 0.150105
v -0.122180 -0.094164 0.075448
v 0.191432 0.047016 0.145747
v -0.125650 -0.092982 0.074305
v -0.093878 0.060973 0.062856
v -0.104689 0.061479 0.059718
v 0.203617 -0.058355 0.163220
v 0.205878 0.023718 0.152948
v 0.192876 -0.028682 0.223163
v -0.145441 -0.105271 0.318662
v -0.107211 0.132348 0.217310
v -0.104689 0.061479 0.059718
v -0.125650 -0.092982 0.074305
v -0.120622 0.027154 0.363144
v -0.135617 -0.002149 0.369919
v -0.013374 -0.018564 0.373845
v -0.048466 0.054213 0.356943
vn -0.9891 0.1299 -0.0696
vn -0.3172 -0.7944 0.5180
vn -0.9888 0.1333 -0.0666
vn -0.2643 0.7935 0.5481
vn -0.3002 -0.9511 -0.0721
vn -0.3002 -0.9511 -0.0722
vn 0.1974 -0.5414 0.8172
vn -0.2569 0.7949 0.5497
vn -0.2522 0.7955 0.5510
vn -0.2506 0.7950 0.5524
vn -0.6454 0.4696 0.6025
vn -0.9886 0.1305 -0.0745
vn 0.1661 0.8709 -0.4626
vn 0.1757 0.8692 -0.4622
vn 0.1755 0.8692 -0.4622
vn 0.1769 0.8687 -0.4627
vn 0.1813 0.8706 -0.4574
vn 0.9832 0.0008 0.1826
vn 0.5466 0.4286 0.7194
vn 0.5469 0.4273 0.7199
vn 0.1982 -0.5419 0.8167
vn 0.1981 -0.5418 0.8168
vn 0.1982 -0.5421 0.8166
vn -0.0012 0.2241 0.9746
vn -0.0015 0.2256 0.9742
vn -0.2953 -0.9527 -0.0717
vn 0.1940 -0.5342 0.8228
vn 0.5461 0.4295 0.7192
vn -0.2962 -0.9524 -0.0728
vn 0.5451 0.4300 0.7197
vn -0.6718 -0.3164 0.6698
vn -0.3186 -0.7939 0.5178
vn -0.6541 -0.3227 0.6841
vn 0.6313 -0.6442 0.4319
vn 0.6313 -0.6441 0.4319
vn 0.6313 -0.6442 0.4318
vn 0.6314 -0.6442 0.4318
vn -0.9907 0.1205 -0.0624
vn -0.9891 0.1290 -0.0706
vn -0.5886 0.7996 -0.1191
vn 0.2710 -0.1269 -0.9542
vn 0.9839 -0.0048 0.1786
vn -0.9891 0.1276 -0.0735
vn -0.9891 0.1279 -0.0733
vn -0.9891 0.1273 -0.0737
vn -0.0010 0.2257 0.9742
vn -0.0010 0.2258 0.9742
vt 0.655882 0.494830
vt 0.593451 0.475135
vt 0.414887 0.231970
vt 0.658216 0.494830
vt 0.670286 0.564490
vt 0.594950 0.580415
vt 0.543094 0.438743
vt 0.207568 0.000000
vt 0.220305 0.015552
vt 0.030556 0.000133
vt 0.752176 0.924660
vt 0.746803 0.924658
vt 0.259222 0.187375
vt 0.363800 0.010186
vt 0.402321 0.091214
vt 0.015222 0.015562
vt 0.000000 0.178952
vt 0.164672 0.115734
vt 0.265373 0.001049
vt 0.421452 0.186391
vt 0.525876 0.000000
vt 0.798151 0.443840
vt 0.764840 0.419728
vt 0.994990 0.491670
vt 0.742382 0.243538
vt 0.994977 0.474643
vt 0.994942 0.025261
vt 0.970256 0.000000
vt 0.994990 0.001691
vt 0.977414 0.832431
vt 0.904963 0.699476
vt 0.998547 0.787217
vt 1.000000 0.821415
vt 0.043839 0.479130
vt 0.176449 0.487820
vt 0.275403 0.353416
vt 0.402321 0.279447
vt 0.330384 0.003158
vt 0.336892 0.010324
vt 0.446749 0.713672
vt 0.410597 0.924659
vt 0.402321 0.924660
vt 0.364902 0.005779
vt 0.663020 0.498562
vt 0.752176 0.634675
vt 0.811158 0.497368
vt 1.000000 0.494830
vt 0.993295 0.662330
vt 0.697858 0.472948
vt 0.742382 0.407039
vt 0.402321 0.221153
vt 0.278404 0.993134
vt 0.162788 1.000000
vt 0.000000 0.852428
vt 0.002152 0.843800
vt 0.310055 0.991083
vt 0.089992 0.493414
vt 0.310185 0.967513
vt 0.091416 0.487820
vt 0.310185 0.518131
vt 0.310153 0.501104
vt 0.742382 0.036178
s 1
usemtl Material_52.002
f 1/1/1 2/2/1 3/3/1
f 4/4/2 5/5/2 6/6/2
f 7/2/3 8/7/3 9/3/3
f 10/8/4 11/9/4 12/10/4
f 13/5/5 14/11/6 15/12/6
f 15/12/6 16/6/5 13/5/5
f 17/13/7 18/14/7 19/15/7
f 20/9/8 21/16/8 22/10/8
f 23/9/9 24/17/9 25/16/9
f 26/9/10 27/18/10 28/17/10
f 29/8/11 30/19/11 31/9/11
f 32/3/12 33/20/12 34/21/12
f 35/22/13 36/23/13 37/24/13
f 38/23/14 39/25/14 40/26/15
f 40/26/15 41/24/14 38/23/14
f 42/25/16 43/27/16 44/26/16
f 45/25/17 46/28/17 47/29/17
f 47/29/17 48/27/17 45/25/17
f 49/30/18 50/31/18 51/32/18
f 51/32/18 52/33/18 49/30/18
f 53/34/19 54/13/19 55/35/19
f 56/13/20 57/36/20 58/35/20
f 59/36/21 60/13/22 61/15/21
f 61/15/21 62/37/23 59/36/21
f 63/19/24 64/38/24 65/13/24
f 66/38/25 67/39/25 68/13/25
f 69/40/26 70/6/26 71/41/26
f 71/41/26 72/42/26 69/40/26
f 73/39/27 74/14/27 75/13/27
f 76/34/28 77/17/28 78/13/28
f 79/6/29 80/12/29 81/41/29
f 82/17/30 83/18/30 84/13/30
f 85/38/31 86/43/31 87/14/31
f 88/44/32 89/5/32 90/4/32
f 91/39/33 92/38/33 93/14/33
f 94/31/34 95/45/35 96/46/36
f 96/46/36 97/47/36 94/31/34
f 94/31/34 97/47/36 98/48/37
f 99/49/38 100/1/38 101/50/38
f 102/1/39 103/3/39 104/50/39
f 105/51/40 106/20/40 107/3/40
f 108/52/41 109/53/41 110/54/41
f 110/54/41 111/55/41 108/52/41
f 108/52/41 111/55/41 112/56/41
f 111/55/41 113/57/41 112/56/41
f 112/56/41 113/57/41 114/58/41
f 113/57/41 115/59/41 114/58/41
f 114/58/41 115/59/41 116/60/41
f 115/59/41 117/61/41 116/60/41
f 118/48/42 119/32/42 120/31/42
f 121/50/43 122/3/44 123/21/43
f 123/21/43 124/62/45 121/50/43
f 125/9/46 126/19/46 127/13/47
f 127/13/47 128/18/47 125/9/46
